<svg width="20" height="20" viewBox="0 0 20 20" fill="none" xmlns="http://www.w3.org/2000/svg">
<path d="M19.5613 4.87359C19.1822 4.41031 18.5924 4.12873 17.9821 4.12873H5.15889L4.75914 2.63901C4.52718 1.77302 3.72769 1.16895 2.80069 1.16895H0.653099C0.295301 1.16895 0 1.45052 0 1.79347C0 2.13562 0.294459 2.418 0.653099 2.418H2.80069C3.11654 2.418 3.39045 2.61936 3.47434 2.92139L6.04306 12.7077C6.27502 13.5737 7.07451 14.1778 8.00152 14.1778H16.4028C17.3289 14.1778 18.1507 13.5737 18.3612 12.7077L19.9405 6.50575C20.0877 5.941 19.9619 5.33693 19.5613 4.87365L19.5613 4.87359ZM18.6566 6.22252L17.0773 12.4245C16.9934 12.7265 16.7195 12.9279 16.4036 12.9279H8.00154C7.68569 12.9279 7.41178 12.7265 7.32789 12.4245L5.49611 5.39756H17.983C18.1936 5.39756 18.4042 5.49824 18.5308 5.65948C18.6567 5.81994 18.7192 6.0213 18.6567 6.22266L18.6566 6.22252Z" fill="#43464E"/>
<path d="M8.44437 14.9814C7.2443 14.9814 6.25488 15.9276 6.25488 17.0751C6.25488 18.2226 7.24439 19.1688 8.44437 19.1688C9.64445 19.1696 10.6339 18.2234 10.6339 17.0757C10.6339 15.928 9.64436 14.9812 8.44437 14.9812V14.9814ZM8.44437 17.9011C7.9599 17.9011 7.58071 17.5385 7.58071 17.0752C7.58071 16.6119 7.9599 16.2493 8.44437 16.2493C8.92885 16.2493 9.30804 16.6119 9.30804 17.0752C9.30722 17.5188 8.90748 17.9011 8.44437 17.9011Z" fill="#43464E"/>
<path d="M13.1895 15C11.9894 15 11 15.9462 11 17.0937C11 18.2412 11.9895 19.1874 13.1895 19.1874C14.3895 19.1874 15.379 18.2412 15.379 17.0937C15.3584 15.9469 14.3895 15 13.1895 15ZM13.1895 17.9197C12.705 17.9197 12.3258 17.5571 12.3258 17.0938C12.3258 16.6305 12.705 16.2679 13.1895 16.2679C13.674 16.2679 14.0532 16.6305 14.0532 17.0938C14.0532 17.5374 13.6526 17.9197 13.1895 17.9197Z" fill="#43464E"/>
</svg>
